<?xml version="1.0" encoding="UTF-8"?>
<svg version="1.1" xmlns="http://www.w3.org/2000/svg" width="430" height="430">
<path d="M0 0 C3.53740979 3.42112815 6.46808194 7.13926369 9.2578125 11.18359375 C9.8559375 12.04984375 10.4540625 12.91609375 11.0703125 13.80859375 C16.19039552 24.0487598 16.6373446 37.34417282 13.2578125 48.18359375 C9.99199729 56.49268426 5.52274643 62.8800668 -0.7421875 69.18359375 C-1.27714844 69.73273438 -1.81210938 70.281875 -2.36328125 70.84765625 C-3.47454696 71.97466227 -4.60540266 73.08233344 -5.7421875 74.18359375 C-5.07823975 74.26955811 -4.41429199 74.35552246 -3.73022461 74.4440918 C0.16857548 75.40899624 3.52813094 77.16962694 7.06640625 79.015625 C7.82034164 79.40307892 8.57427704 79.79053284 9.35105896 80.18972778 C11.80250901 81.45211466 14.24899593 82.72379138 16.6953125 83.99609375 C18.39911854 84.8766404 20.10305811 85.75692871 21.80712891 86.63696289 C31.1273409 91.46087198 40.38611061 96.37842255 49.56347656 101.46948242 C60.5211835 107.50285473 71.69738272 113.12525441 82.84130859 118.80444336 C91.10274024 123.01596179 99.3499822 127.25230549 107.5625 131.55859375 C108.34014206 131.96490021 109.11778412 132.37120667 109.91899109 132.78982544 C129.66425545 143.18053586 129.66425545 143.18053586 132.35400391 149.93725586 C133.94754904 155.92857197 133.56285052 162.2169139 133.55859375 168.3671875 C133.56248759 169.75049466 133.56682366 171.13380064 133.57157898 172.5171051 C133.57901323 175.40768317 133.57877018 178.29813904 133.57348633 181.1887207 C133.567693 184.874905 133.58463249 188.56058662 133.607831 192.24668789 C133.62263203 195.10104752 133.62343148 197.95528781 133.62032127 200.80967903 C133.62107739 202.82361696 133.63489542 204.83753651 133.64900208 206.85142517 C133.61045661 214.51318645 133.51348295 221.01016857 128.62353516 227.27856445 C123.05561645 231.9065899 117.10679574 235.16615651 110.6328125 238.37109375 C108.37139684 239.51756286 106.11099563 240.66603496 103.8515625 241.81640625 C102.73007812 242.38520508 101.60859375 242.95400391 100.453125 243.54003906 C95.96109642 245.85057821 91.54784038 248.29262868 87.1328125 250.74609375 C75.12563518 257.3759704 62.89636758 263.57586408 50.67724609 269.80297852 C37.46679457 276.53769391 24.29579872 283.34711761 11.265625 290.42578125 C-8.28339973 301.01243636 -28.14839854 307.36723127 -50.48974609 300.95507812 C-59.26053718 297.95099187 -67.52277938 293.42448892 -75.7421875 289.18359375 C-76.57298828 288.75594727 -77.40378906 288.32830078 -78.25976562 287.88769531 C-82.94064273 285.46635271 -87.59412965 282.99582182 -92.2421875 280.51220703 C-96.89361032 278.04023018 -101.56968384 275.61541162 -106.2421875 273.18359375 C-122.2895466 264.81692024 -138.29843506 256.38507614 -154.22998047 247.79956055 C-159.77631561 244.81470115 -165.33406224 241.86261465 -170.95703125 239.0234375 C-171.90787598 238.5399585 -172.8587207 238.05647949 -173.83837891 237.55834961 C-175.58091081 236.67643363 -177.32889417 235.80516081 -179.08349609 234.94750977 C-185.40114734 231.73913394 -191.12929686 228.09250142 -193.9140625 221.34350586 C-195.42587654 215.38074367 -195.04719423 209.10506615 -195.04296875 203 C-195.04686259 201.61669284 -195.05119866 200.23338686 -195.05595398 198.8500824 C-195.06338823 195.95950433 -195.06314518 193.06904846 -195.05786133 190.1784668 C-195.052068 186.4922825 -195.06900749 182.80660088 -195.092206 179.12049961 C-195.10700703 176.26613998 -195.10780648 173.41189969 -195.10469627 170.55750847 C-195.10545239 168.54357054 -195.11927042 166.52965099 -195.13337708 164.51576233 C-195.09565371 157.01741275 -195.00916798 150.52223426 -190.33105469 144.30957031 C-184.982476 140.02461018 -179.10429282 136.99522061 -172.9921875 133.93359375 C-170.73935856 132.78429465 -168.48675623 131.63455126 -166.234375 130.484375 C-165.12803711 129.92314941 -164.02169922 129.36192383 -162.88183594 128.78369141 C-158.60490633 126.60398716 -154.35905293 124.36805656 -150.1171875 122.12109375 C-145.16322994 119.5046903 -140.20350752 116.90029711 -135.23046875 114.3203125 C-125.97140282 109.514656 -116.74994272 104.6630448 -107.6171875 99.62109375 C-98.02516297 94.34466291 -88.32865258 89.2736585 -78.60235596 84.25027466 C-76.90837598 83.37479532 -75.21545601 82.49726178 -73.52362061 81.61764526 C-71.13741902 80.37813517 -68.74712848 79.14690725 -66.35546875 77.91796875 C-65.6314537 77.54045975 -64.90743866 77.16295074 -64.16148376 76.77400208 C-59.08570788 74.18359375 -59.08570788 74.18359375 -55.7421875 74.18359375 C-56.3815625 73.56484375 -57.0209375 72.94609375 -57.6796875 72.30859375 C-58.70367099 71.2700236 -59.72390037 70.22774961 -60.7421875 69.18359375 C-61.45503906 68.466875 -62.16789063 67.75015625 -62.90234375 67.01171875 C-72.00959702 57.46354671 -76.75316721 46.98847184 -76.73828125 33.6953125 C-75.995041 18.97283001 -71.19892813 9.07514092 -60.4296875 -1.19140625 C-42.53357557 -16.17134214 -17.41983502 -14.81526162 0 0 Z " fill="#131331" transform="translate(245.7421875,75.81640625)"/>
<path d="M0 0 C0.00546844 1.72768112 0.00546844 1.72768112 0.01104736 3.49026489 C0.04800157 14.34907964 0.10577913 25.20761091 0.18390274 36.06620979 C0.22339817 41.64864395 0.25557664 47.23091987 0.27099609 52.81347656 C0.28614888 58.2017972 0.32057041 63.58968288 0.36830902 68.97780991 C0.38313695 71.03263441 0.39104182 73.087521 0.39188385 75.14239883 C0.39425096 78.02264941 0.42131046 80.90169548 0.45410156 83.78173828 C0.4490712 84.62978531 0.44404083 85.47783234 0.43885803 86.35157776 C0.53393466 91.75546058 1.59310437 94.61392814 5 99 C5.33 99.99 5.66 100.98 6 102 C8.29534258 103.13545562 8.29534258 103.13545562 11 104 C12.11181641 104.51240234 12.11181641 104.51240234 13.24609375 105.03515625 C19.68854927 107.29230024 28.22474159 107.26561452 34.5 104.4375 C38.99115836 101.74280498 42.65984127 97.68031747 45 93 C45.12286155 90.07158454 45.18577144 87.16543602 45.20532227 84.23583984 C45.21522186 83.32846573 45.22512146 82.42109161 45.23532104 81.48622131 C45.26698609 78.4778202 45.29171324 75.46940327 45.31640625 72.4609375 C45.33697146 70.37870872 45.35796781 68.29648416 45.37937927 66.21426392 C45.4346447 60.72667855 45.48403424 55.23905524 45.53222656 49.75140381 C45.58240897 44.15454724 45.63811203 38.55774596 45.69335938 32.9609375 C45.80099562 21.97400554 45.90242843 10.98702563 46 0 C47.44881648 0.47406194 48.89688651 0.95040559 50.34463501 1.42771912 C51.55434432 1.82524966 51.55434432 1.82524966 52.7884922 2.23081112 C55.15691188 3.05457583 57.28427516 4.04131076 59.4609375 5.28515625 C60.6355957 5.94354492 60.6355957 5.94354492 61.83398438 6.61523438 C63.09178711 7.33163086 63.09178711 7.33163086 64.375 8.0625 C74.30552399 13.60268707 84.37329175 18.83024742 94.5 24 C104.90321545 29.31659829 115.24759919 34.70002011 125.46533203 40.36743164 C135.83813256 46.08122909 146.41347089 51.41249932 156.97265625 56.77148438 C175.95261571 66.42892356 175.95261571 66.42892356 179 71 C179.37109375 73.26953125 179.37109375 73.26953125 179.4375 75.8125 C179.47746094 76.64394531 179.51742188 77.47539062 179.55859375 78.33203125 C178.77677412 82.06617674 176.66883065 84.39687863 174 87 C171.6757228 88.46798294 169.51936095 89.69670712 167.06640625 90.8828125 C166.40125504 91.21879959 165.73610382 91.55478668 165.05079651 91.9009552 C163.63055517 92.61662493 162.2072116 93.3261665 160.78106689 94.02999878 C157.76326612 95.5194718 154.76071027 97.03852896 151.75720215 98.55656433 C150.25248186 99.31697692 148.74703059 100.07594481 147.24084473 100.83345032 C141.46436941 103.74349797 135.7765195 106.79138525 130.125 109.9375 C119.93295646 115.58205018 109.56960641 120.87723507 99.19586182 126.17718506 C90.05800036 130.84759344 80.97716823 135.58762536 72 140.5625 C51.65185044 151.76504933 30.46708258 163.22871989 6.58764648 156.45898438 C-3.19928468 153.32301967 -11.98335349 148.45456586 -20.89453125 143.41015625 C-27.05727088 139.92969795 -33.33118841 136.68282022 -39.62954712 133.45782471 C-49.9317526 128.18225372 -60.15875887 122.79018929 -70.30322266 117.21582031 C-81.81381381 110.89282916 -93.41077511 104.75061181 -105.1875 98.9375 C-110.76631308 96.167752 -116.28733591 93.30533924 -121.75 90.3125 C-122.41797607 89.95599365 -123.08595215 89.5994873 -123.77416992 89.23217773 C-127.7591629 87.0138496 -130.5791878 84.89123147 -133 81 C-133.56640625 78.5 -133.56640625 78.5 -133.5625 76 C-133.58441406 75.175 -133.60632813 74.35 -133.62890625 73.5 C-132.57102967 69.29477631 -129.7857965 67.11519508 -126.17895508 64.86279297 C-124.01910236 63.66575355 -121.83252837 62.54413051 -119.625 61.4375 C-117.91536133 60.55860007 -116.20572606 59.67969354 -114.49609375 58.80078125 C-113.59874512 58.34396973 -112.70139648 57.8871582 -111.77685547 57.41650391 C-107.06611119 55.01350247 -102.3769983 52.56913662 -97.6875 50.125 C-96.71780273 49.6206543 -95.74810547 49.11630859 -94.74902344 48.59667969 C-88.24698874 45.20459468 -81.79968727 41.72353153 -75.375 38.1875 C-66.16556962 33.11983696 -56.84897312 28.276594 -47.49972534 23.47424316 C-39.58325226 19.40547033 -31.71928196 15.26012668 -23.9375 10.9375 C-4.23131361 0 -4.23131361 0 0 0 Z " fill="#393246" transform="translate(192,157)"/>
<path d="M0 0 C0.61618195 0.30841827 1.23236389 0.61683655 1.86721802 0.93460083 C4.05042172 2.02518741 6.23961155 3.10297361 8.4296875 4.1796875 C17.74108694 8.77945118 26.97655481 13.46810743 36.0625 18.5 C46.16352365 24.08711989 56.41174257 29.36905376 66.6875 34.625 C67.90655533 35.24859909 67.90655533 35.24859909 69.15023804 35.88479614 C70.76698968 36.71175311 72.38374479 37.53870329 74.00050354 38.36564636 C75.17007851 38.96388969 75.17007851 38.96388969 76.36328125 39.57421875 C77.13014755 39.96640091 77.89701385 40.35858307 78.68711853 40.76264954 C84.26833352 43.6192836 89.83262853 46.50609978 95.375 49.4375 C96.07181885 49.80584961 96.7686377 50.17419922 97.48657227 50.55371094 C98.88506561 51.29352322 100.28342097 52.03359638 101.68164062 52.77392578 C106.49098877 55.31737001 111.30678783 57.84839515 116.125 60.375 C117.0742334 60.87572021 118.0234668 61.37644043 119.00146484 61.89233398 C138.63578512 72.17557011 156.70543572 75.88680972 178.4375 69.5625 C188.36118466 66.04077022 197.67225239 60.83907006 207 56 C207.79293457 55.58975586 208.58586914 55.17951172 209.40283203 54.75683594 C217.1026041 50.76288106 224.75095187 46.67391509 232.390625 42.56640625 C234.71863785 41.31489483 237.04671014 40.06349583 239.375 38.8125 C239.96596466 38.49495758 240.55692932 38.17741516 241.165802 37.85025024 C253.22375882 31.37609044 265.36850396 25.07692028 277.5383606 18.81626892 C281.93984349 16.55049158 286.33278427 14.26865008 290.72265625 11.98046875 C291.97777214 11.32688306 293.23289892 10.67331827 294.48803711 10.01977539 C296.86362757 8.78271822 299.23791124 7.54325625 301.61157227 6.30249023 C302.67045654 5.75149658 303.72934082 5.20050293 304.8203125 4.6328125 C305.75117676 4.14699707 306.68204102 3.66118164 307.64111328 3.16064453 C310 2 310 2 313 1 C313.10151557 7.45941732 313.17151376 13.91862852 313.21972656 20.37866211 C313.23982767 22.57568042 313.26711306 24.77264532 313.30175781 26.96948242 C313.35034093 30.12952866 313.37298405 33.28886687 313.390625 36.44921875 C313.41127014 37.42960617 313.43191528 38.40999359 313.45318604 39.42008972 C313.45456878 43.63334421 313.4201114 46.26524247 311.30004883 49.97314453 C308.8924009 52.09481878 306.67510019 53.54071175 303.80859375 54.98046875 C302.79176514 55.49915527 301.77493652 56.0178418 300.72729492 56.55224609 C299.09884644 57.36169678 299.09884644 57.36169678 297.4375 58.1875 C295.15084053 59.34986481 292.86438367 60.5126283 290.578125 61.67578125 C289.45212891 62.24377441 288.32613281 62.81176758 287.16601562 63.39697266 C282.98402078 65.51441391 278.8320209 67.68534605 274.6875 69.875 C273.93976318 70.26840576 273.19202637 70.66181152 272.42163086 71.06713867 C267.87924631 73.46187058 263.35209753 75.88371967 258.83203125 78.3203125 C244.10982089 86.25285215 229.3068021 94.00409674 214.42089844 101.62524414 C205.77603681 106.0517997 197.14775391 110.50401223 188.58959961 115.09692383 C173.4669937 123.15696887 156.24718655 126.27637002 139.375 121.625 C125.37658849 116.43233373 112.250597 108.65376774 99.21313477 101.46289062 C92.40888782 97.72351734 85.51332326 94.22071322 78.54785156 90.79345703 C71.225025 87.16679026 64.07265046 83.25681542 56.91650391 79.3137207 C51.78491707 76.49447089 46.63322168 73.76224952 41.375 71.1875 C34.25066597 67.67624853 27.19699184 64.03050505 20.17266846 60.32388306 C18.90130783 59.65510806 17.62785145 58.99030056 16.35223389 58.3296814 C14.5465767 57.39340922 12.74925343 56.44267891 10.953125 55.48828125 C9.90286133 54.93696533 8.85259766 54.38564941 7.77050781 53.81762695 C4.10940989 51.41571701 1.6720342 48.99448812 0.25610352 44.79223633 C-0.12544487 40.63230413 -0.12179036 36.49937288 -0.09765625 32.32421875 C-0.0962413 31.3990596 -0.09482635 30.47390045 -0.09336853 29.52070618 C-0.08778715 26.57627073 -0.07523805 23.63191233 -0.0625 20.6875 C-0.05748259 18.68685006 -0.05292011 16.68619892 -0.04882812 14.68554688 C-0.03782381 9.79033506 -0.02057198 4.89518058 0 0 Z " fill="#231E2D" transform="translate(58,248)"/>
<path d="M0 0 C8.70420955 6.05895741 13.97257077 13.61693105 17.30078125 23.6015625 C17.92839158 33.24206868 18.1721481 41.95826924 13.30078125 50.6015625 C12.43453125 52.1484375 12.43453125 52.1484375 11.55078125 53.7265625 C5.22583055 61.80844395 -2.22016266 68.75340446 -12.69921875 70.6015625 C-30.61903446 71.72731817 -30.61903446 71.72731817 -38.69921875 66.6015625 C-39.70984375 66.0240625 -40.72046875 65.4465625 -41.76171875 64.8515625 C-49.91410544 58.60718121 -56.84944894 51.07125961 -58.69921875 40.6015625 C-59.5061745 27.87547349 -59.06821561 18.39961584 -50.44921875 8.3515625 C-36.50917131 -6.18167845 -18.27281373 -10.79326821 0 0 Z " fill="#F04B00" transform="translate(235.69921875,77.3984375)"/>
<path d="M0 0 C0.59879471 0.07064667 1.19758942 0.14129333 1.81452942 0.21408081 C2.61025864 0.30569489 3.40598785 0.39730896 4.22583008 0.49169922 C5.01024979 0.58297089 5.79466949 0.67424255 6.6028595 0.76828003 C10.30042486 1.12570578 13.97569465 1.14526463 17.6875 1.125 C18.40744141 1.12886719 19.12738281 1.13273438 19.86914062 1.13671875 C24.02827219 1.12913601 27.91360714 0.73045134 32 0 C32.09270652 12.28277243 32.16376857 24.56546152 32.20724869 36.84851265 C32.22811767 42.552129 32.25642323 48.25550586 32.30175781 53.95898438 C32.34523939 59.46382881 32.36914229 64.96844297 32.37950897 70.47344589 C32.38689613 72.57300313 32.40132153 74.67254785 32.42292023 76.77200699 C32.45198449 79.71432924 32.45595468 82.65570168 32.45410156 85.59814453 C32.47567322 86.89826729 32.47567322 86.89826729 32.49768066 88.22465515 C32.46087658 93.63010359 31.61707748 96.72363521 28 101 C23.1578094 104.37827251 18.70094971 104.67511247 13 104 C8.24878608 103.08630502 5.0915201 102.29467073 1.9006958 98.50997925 C-0.5474183 93.9890929 -0.53790354 90.64888649 -0.45410156 85.59814453 C-0.45468567 84.67067917 -0.45526978 83.74321381 -0.45587158 82.78764343 C-0.45309476 79.7356465 -0.4220214 76.68463788 -0.390625 73.6328125 C-0.38316119 71.51146986 -0.37746892 69.39012032 -0.37347412 67.26876831 C-0.3582289 61.69552449 -0.31895629 56.12270011 -0.2746582 50.54962158 C-0.23368174 44.8586596 -0.21545801 39.1676296 -0.1953125 33.4765625 C-0.15246127 22.31752443 -0.0842231 11.15879714 0 0 Z " fill="#636D77" transform="translate(199,153)"/>
<path d="M0 0 C2.86216454 2.19591246 5.14636796 4.26814725 6.14453125 7.76171875 C6.5905757 12.37084478 6.61763881 14.75636518 4.64453125 18.94921875 C-1.931147 26.34685678 -10.27948538 29.16918374 -19.953125 29.92578125 C-30.14837609 30.32136418 -38.23614898 26.97935854 -45.73046875 20.13671875 C-48.19186591 16.2274409 -48.71778387 13.84927774 -48.45703125 9.29296875 C-47.13337097 3.72328134 -43.41950635 0.5139761 -38.83203125 -2.62109375 C-27.35291316 -8.3807916 -10.50055651 -7.00773982 0 0 Z " fill="#161430" transform="translate(155.85546875,219.23828125)"/>
<path d="M0 0 C2.97 0.33 5.94 0.66 9 1 C8.01 1.495 8.01 1.495 7 2 C7.06123113 14.02222055 7.13835213 26.04422437 7.23571491 38.06620979 C7.28042696 43.64861734 7.31968142 49.23095177 7.34643555 54.81347656 C7.37245994 60.20173947 7.41285666 65.58972112 7.46318626 70.97780991 C7.47986074 73.03263727 7.49137139 75.0875133 7.49761391 77.14239883 C7.5072485 80.02247802 7.53530063 82.90183668 7.56762695 85.78173828 C7.56619186 86.62978531 7.56475677 87.47783234 7.5632782 88.35157776 C7.64219275 93.32861412 8.36856071 96.63186674 11 101 C11.33 101.66 11.66 102.32 12 103 C7.98650355 102.71998862 6.27964858 102.24236211 3.1875 99.5625 C-0.55957378 95.17307071 -0.13619276 91.60756172 -0.11352539 86.05224609 C-0.11367142 85.12536484 -0.11381744 84.19848358 -0.1139679 83.24351501 C-0.11326946 80.1701323 -0.10548027 77.09680967 -0.09765625 74.0234375 C-0.09579182 71.89637281 -0.09436804 69.7693077 -0.09336853 67.64224243 C-0.08954528 62.03624288 -0.07971662 56.43026912 -0.06866455 50.82427979 C-0.0584463 45.10681507 -0.05387002 39.38934621 -0.04882812 33.671875 C-0.0380942 22.44790532 -0.02102007 11.2239548 0 0 Z " fill="#454E58" transform="translate(199,153)"/>
<path d="M0 0 C0.74588379 0.00539795 1.49176758 0.0107959 2.26025391 0.01635742 C8.84319712 0.19790142 14.23858715 1.52033604 19.31640625 5.89453125 C20.625 7.4375 20.625 7.4375 21.1875 10.3125 C20.5459124 13.87687557 19.43138279 15.22405686 16.515625 17.3359375 C9.67008766 21.32445306 2.45512215 22.43825999 -5.375 21.4375 C-10.60700649 20.00457688 -16.31429055 18.16768733 -19.375 13.4375 C-19.875 10.4375 -19.875 10.4375 -19.375 7.4375 C-14.77053825 0.99125355 -7.36484623 -0.10189832 0 0 Z " fill="#EF4B00" transform="translate(134.375,220.5625)"/>
<path d="M0 0 C-1.44385308 3.3171599 -3.27795193 5.44122107 -5.8125 8 C-14.10934285 17.3245028 -15.88962475 26.74391924 -15.3515625 38.85546875 C-15.01204874 43.64175863 -14.21045481 47.71255179 -12 52 C-11.58621094 52.82757813 -11.17242187 53.65515625 -10.74609375 54.5078125 C-7.75858024 59.96185623 -4.44212752 63.8053838 0.4609375 67.625 C0.96882813 68.07875 1.47671875 68.5325 2 69 C2 69.66 2 70.32 2 71 C-7.5784735 67.6193623 -15.33479337 60.76917658 -19.9375 51.75 C-24.22689666 42.61867422 -24.93674782 30.17910629 -21.5625 20.5625 C-18.31900799 13.83483283 -8.37157975 0 0 0 Z " fill="#E53001" transform="translate(200,75)"/>
<path d="M0 0 C0.66 0.33 1.32 0.66 2 1 C1.154375 1.86625 0.30875 2.7325 -0.5625 3.625 C-2.6216594 6.11120098 -2.99374427 6.69346934 -3.0625 10.0625 C-1.64717902 13.97544625 0.19663694 17.09831847 4 19 C5.70363822 19.22622081 7.41328701 19.40888473 9.125 19.5625 C10.03507812 19.64628906 10.94515625 19.73007813 11.8828125 19.81640625 C12.58148438 19.87699219 13.28015625 19.93757813 14 20 C14 20.33 14 20.66 14 21 C4.99392505 21.61638536 -2.17565867 20.44595809 -9.625 15.125 C-11.53052874 12.18009194 -11.57326746 10.43960478 -11 7 C-8.16000788 3.02401103 -4.48318448 1.57741676 0 0 Z " fill="#DE3003" transform="translate(126,221)"/>
</svg>
